<svg xmlns="http://www.w3.org/2000/svg" viewBox="0 0 120 120" fill="none">
  <defs>
    <linearGradient id="wg" x1="30%" y1="0%" x2="70%" y2="100%">
      <stop offset="0%" stop-color="#1a8fc4"/>
      <stop offset="40%" stop-color="#0d6ebd"/>
      <stop offset="100%" stop-color="#0a2540"/>
    </linearGradient>
  </defs>

  <!-- Wing feather 1 (top/outermost) - sweeps up and left -->
  <path d="M68 78 Q55 55 38 28 Q34 22 30 16 Q26 10 22 12 Q18 14 22 22 Q28 32 36 45 Q40 52 46 60 Q50 66 56 72 L68 78Z" fill="url(#wg)"/>

  <!-- Wing feather 2 (middle) -->
  <path d="M70 82 Q58 62 44 40 Q40 34 36 28 Q32 22 28 24 Q24 26 28 34 Q34 44 42 56 Q48 64 54 70 Q60 76 66 80 L70 82Z" fill="url(#wg)" opacity="0.85"/>

  <!-- Wing feather 3 (inner/lowest) -->
  <path d="M72 85 Q62 68 50 50 Q46 44 42 38 Q38 32 35 34 Q32 36 36 44 Q42 54 50 64 Q56 70 62 76 Q66 80 70 84 L72 85Z" fill="url(#wg)" opacity="0.7"/>

  <!-- Body - curves from wings down to tail -->
  <path d="M72 85 Q75 78 78 72 Q82 64 86 60 Q90 56 92 54 Q94 52 93 52 Q92 52 88 56 Q84 62 80 70 Q76 78 74 84 L72 85Z" fill="#0a2540"/>

  <!-- Head -->
  <path d="M86 58 Q90 52 94 48 Q96 46 98 46 Q100 46 100 48 Q100 50 98 52 Q96 54 92 58 Q90 60 88 60 Q86 60 86 58Z" fill="#0a2540"/>

  <!-- Beak -->
  <path d="M100 48 L106 50 L100 52Z" fill="#0d6ebd"/>

  <!-- Eye -->
  <circle cx="96" cy="49" r="1.5" fill="white"/>
  <circle cx="96.6" cy="49" r="0.7" fill="#0a2540"/>
</svg>
