<svg xmlns="http://www.w3.org/2000/svg" viewBox="0 0 200 60" fill="none">
  <defs>
    <linearGradient id="g1" x1="0%" y1="0%" x2="100%" y2="100%">
      <stop offset="0%" stop-color="#0d6ebd"/>
      <stop offset="100%" stop-color="#0a2540"/>
    </linearGradient>
  </defs>
  
  <!-- Stylized bird/wing icon -->
  <path d="M15 48 C12 40 6 28 4 18 C3 14 5 10 8 11 C12 13 16 20 20 30 C18 22 14 14 12 10 C11 8 13 6 16 8 C20 12 24 22 27 32 C25 24 20 14 18 10 C17 8 19 6 22 8 C26 12 28 24 30 34 C28 28 24 20 22 16 C21 14 23 12 26 14 C30 18 32 28 32 38 L30 48Z" fill="url(#g1)"/>
  
  <!-- Bird body -->
  <path d="M30 34 C33 30 36 28 38 28 C40 28 42 30 40 34 C38 38 35 42 32 46 L30 48Z" fill="#0a2540"/>
  
  <!-- Beak -->
  <path d="M42 28 L48 29 L42 31Z" fill="#0d6ebd"/>
  
  <!-- Eye -->
  <circle cx="40" cy="28" r="1" fill="white"/>
</svg>
